<?xml version="1.0" standalone="no"?>
<!DOCTYPE svg PUBLIC "-//W3C//DTD SVG 20010904//EN"
 "http://www.w3.org/TR/2001/REC-SVG-20010904/DTD/svg10.dtd">
<svg version="1.0" xmlns="http://www.w3.org/2000/svg"
 width="1200.000000pt" height="867.000000pt" viewBox="0 0 1200.000000 867.000000"
 preserveAspectRatio="xMidYMid meet">

<g transform="translate(0.000000,867.000000) scale(0.100000,-0.100000)"
fill="#000000" stroke="none">
<path d="M5217 8013 c-3 -5 -507 -1396 -1120 -3093 -614 -1697 -1210 -3347
-1326 -3668 -116 -321 -211 -587 -211 -593 0 -5 1297 -9 3440 -9 2746 0 3440
3 3439 13 0 6 -597 1664 -1327 3682 l-1328 3670 -781 3 c-430 1 -784 -1 -786
-5z m2620 -3788 c114 -34 185 -127 185 -244 0 -54 -15 -98 -150 -435 l-149
-375 57 -35 c69 -43 152 -130 185 -195 59 -118 60 -127 60 -616 0 -438 -1
-451 -21 -495 -12 -25 -36 -60 -55 -78 -68 -69 -50 -66 -519 -72 l-425 -5 2
-37 c5 -77 69 -159 153 -197 42 -19 65 -21 328 -21 320 0 297 7 265 -85 -10
-31 -34 -67 -63 -96 -84 -84 -11 -79 -1211 -79 -663 0 -1095 4 -1160 10 -357
37 -675 185 -927 433 -224 220 -350 445 -430 767 l-26 105 -3 623 -4 622 38 0
c218 -2 428 -197 465 -433 12 -77 12 -77 43 -77 98 0 241 -66 325 -150 84 -85
150 -227 150 -327 l0 -33 -256 0 -257 0 7 -61 c29 -255 250 -449 511 -449 163
0 316 72 499 233 37 32 156 157 266 277 309 338 436 438 621 490 63 17 104 20
279 20 l205 0 384 480 c396 497 418 520 504 540 49 12 69 11 124 -5z"/>
<path d="M7456 3590 c-163 -203 -296 -372 -296 -375 0 -3 68 -4 152 -3 l152 3
148 369 c81 203 146 371 144 373 -2 2 -137 -163 -300 -367z"/>
<path d="M6824 2176 c-49 -22 -74 -61 -74 -118 0 -43 5 -55 33 -83 43 -43 79
-52 131 -34 107 37 115 184 13 232 -42 20 -62 21 -103 3z"/>
</g>
</svg>
